<svg xmlns="http://www.w3.org/2000/svg" xmlns:xlink="http://www.w3.org/1999/xlink" xml:space="preserve" viewBox="0 0 48 48"><defs><linearGradient id="c"><stop offset="0" style="stop-color:#000;stop-opacity:1"/><stop offset=".429" style="stop-color:#3d1d4a;stop-opacity:.63636363"/><stop offset="1" style="stop-color:#8e44ad;stop-opacity:.27922079"/></linearGradient><linearGradient id="b"><stop offset="0" style="stop-color:#3daee9;stop-opacity:1"/><stop offset="1" style="stop-color:#16a085;stop-opacity:1"/></linearGradient><linearGradient xlink:href="#a" id="f" x1="34" x2="48.765" y1="19.008" y2="33.773" gradientTransform="translate(5.545 10.561) scale(.65572)" gradientUnits="userSpaceOnUse"/><linearGradient id="j" x1="-24.896" x2="-14.45" y1="-171.37" y2="-171.37" gradientTransform="translate(14.215 92.255) scale(.37955)" gradientUnits="userSpaceOnUse"><stop offset="0" stop-color="#eff0f1"/><stop offset="1" stop-color="#bdc3c7" style="stop-color:#fff;stop-opacity:1"/></linearGradient><linearGradient id="g" x1="4" x2="4" y1="44" y2="4" gradientTransform="translate(5.545 10.561) scale(.65572)" gradientUnits="userSpaceOnUse"><stop offset="0" stop-color="#dfe646" style="stop-color:#fdbc4b;stop-opacity:1"/><stop offset="1" stop-color="#f5f9ab" style="stop-color:#fde44b;stop-opacity:1"/></linearGradient><linearGradient xlink:href="#a" id="h" x1="6.739" x2="10.48" y1="27.437" y2="31.492" gradientUnits="userSpaceOnUse"/><linearGradient id="i" x1="-20.34" x2="-19.166" y1="-165.86" y2="-191.26" gradientTransform="translate(14.215 92.255) scale(.37955)" gradientUnits="userSpaceOnUse"><stop offset="0" stop-color="#2c3e50"/><stop offset="1" stop-color="#232629" style="stop-color:#194d6f;stop-opacity:1"/></linearGradient><radialGradient xlink:href="#b" id="d" cx="15.747" cy="10.476" r="22.448" fx="15.747" fy="10.476" gradientTransform="matrix(2.5174 0 0 1.64331 -24.877 -2.496)" gradientUnits="userSpaceOnUse"/><radialGradient xlink:href="#c" id="e" cx="-1.804" cy="-16.624" r="20.127" fx="-1.804" fy="-16.624" gradientTransform="matrix(3.943 0 0 2.56297 5.31 41.22)" gradientUnits="userSpaceOnUse"/></defs><linearGradient id="a" x1="34" x2="44" y1="19.008" y2="29.008" gradientUnits="userSpaceOnUse"><stop offset="0" stop-color="#292c2f"/><stop offset="1" stop-opacity="0"/></linearGradient><path d="M34.987 11.718c-2.777.066-8.784 1.001-13.602 2.068l-.054.012c-.904.2-1.805.415-2.702.645-.117.03-.233.064-.35.095-.792.214-1.586.448-2.357.733-.385.14-.764.297-1.136.468-.371.172-.733.361-1.084.57-.332.2-.666.407-1 .622-.649.418-1.296.868-1.922 1.342-.934.698-1.81 1.47-2.62 2.308-.254.268-.494.54-.72.817l-.012.011-.002.002c-.08.098-.153.197-.228.295-.14.184-.278.37-.404.557-.03.044-.067.088-.096.133-1.53 2.35-2.55 5.109-3.057 6.383-.506 1.275-.498 1.06-.797 1.117-.298.057-.9.387-1.054 1.281-.153.895.147 2.345 1.2 3.262 1.056.916 2.861 1.292 4.907 2.261 2.025.96 4.296 2.5 10.38 3.4.064.01.113.022.177.032.628.09 1.308.17 2.015.244.629.07 1.285.13 1.957.188 5.993.518 13.43.605 17.71.213 5.292-.486 5.702-1.688 5.097-3.27-.605-1.582-2.225-3.546-3.844-5.508l-.263-.888-.487-1.635c.255.01.506.026.75.054 1.084.125 2.049.441 2.73.588.683.146 1.08.126 1.415-.011.336-.136.606-.387.816-1.414.21-1.027.358-2.83.274-4.811-.084-1.981-.398-4.14-.692-5.377-.293-1.236-.568-1.553-.88-1.69a.666.666 0 0 0-.266-.058c-.317-.005-.854.177-2.198.814-.88.417-3.736 1.015-5.588 1.429.029-2.028.591-3.708.614-4.832.023-1.21.595-2.056-1.506-2.404-.263-.042-.645-.058-1.121-.046z" style="fill:#194d6f;fill-opacity:1"/><path d="M40.639 29.477s.506.024.75.052c1.084.125 2.05.441 2.73.588.683.146 1.08.127 1.414-.01.336-.136.607-.387.817-1.414.21-1.027.357-2.83.273-4.81a33.953 33.953 0 0 0-.39-3.774c-7.128-1.038-17.792 9.506-5.594 9.368z" style="opacity:1;fill:#d68b0a;fill-opacity:1;stroke-width:2.43476"/><path d="M34.965 10.697c-2.777.067-8.784 1.001-13.602 2.068l-.054.012a84.563 84.563 0 0 0-2.702.645c-.117.03-.233.064-.35.095-.792.214-1.586.448-2.357.733a15.31 15.31 0 0 0-1.136.468c-.371.172-.733.361-1.084.57-.332.2-.666.407-1 .622-.649.418-1.296.868-1.922 1.342a21.678 21.678 0 0 0-2.62 2.308c-.254.268-.494.54-.72.817l-.012.011-.002.002c-.08.098-.153.197-.228.295-.141.184-.278.37-.405.557-.03.045-.066.088-.095.133-1.53 2.35-2.55 5.109-3.057 6.383-.506 1.275-.498 1.06-.797 1.117-.298.057-.9.387-1.054 1.281-.153.895.147 2.345 1.2 3.262 1.056.916 2.861 1.292 4.907 2.261 2.025.96 4.296 2.5 10.38 3.4.064.01.113.022.177.032.628.09 1.308.17 2.015.244.629.07 1.285.13 1.957.188 5.993.519 13.43.605 17.71.213 5.292-.486 5.702-1.688 5.097-3.27-1.834-3.08-3.605-4.708-4.594-8.031.255.01.506.027.75.055 1.084.125 2.049.44 2.73.587.683.146 1.08.126 1.415-.011.336-.136.606-.387.816-1.414.21-1.027.358-2.83.274-4.81-.084-1.982-.398-4.14-.692-5.378-.293-1.236-.568-1.553-.88-1.69a.666.666 0 0 0-.266-.058c-.317-.005-.854.178-2.198.815-.88.417-2.556.74-4.408 1.154.029-2.028.591-3.708.613-4.832.023-1.21-.584-1.782-2.685-2.13-.263-.042-.645-.058-1.121-.046z" style="fill:url(#d);fill-opacity:1"/><path d="m16.037 38.31-.08.354-.22.982c.758.161 1.62.317 2.54.454.064.01.112.023.176.033.628.09 1.309.17 2.016.244.577.064 1.18.118 1.795.172l.14-1.006z" style="fill:#d68b0a;stroke-width:2.13543"/><path d="M35.137 10.697c-.28.088-.477.147-.75.233A43.622 43.622 0 0 1 4.56 34.313c.948.404 2.074.78 3.314 1.367 2.025.96 4.296 2.5 10.38 3.4.064.01.113.021.177.031.628.09 1.308.17 2.015.244a102.563 102.563 0 0 0 2.922.266c5.808.449 12.691.506 16.744.135 5.293-.486 5.703-1.688 5.098-3.27-1.834-3.08-3.605-4.707-4.594-8.03.255.01.506.026.75.054.245.028.48.068.711.111.28.053.551.112.805.174.462.113.874.23 1.215.303.17.036.322.061.46.078.139.016.264.023.378.021.113-.002.215-.012.31-.031s.182-.046.266-.08c.336-.136.606-.387.816-1.414.175-.858.305-2.26.295-3.852a26.667 26.667 0 0 0-.021-.959v-.002c-.021-.494-.056-1-.102-1.5v-.002a35.84 35.84 0 0 0-.166-1.463v-.002c-.063-.47-.131-.917-.203-1.324v-.002a19.372 19.372 0 0 0-.22-1.082v-.002a7.802 7.802 0 0 0-.218-.763v-.002a2.896 2.896 0 0 0-.216-.49 1.161 1.161 0 0 0-.22-.284.81.81 0 0 0-.228-.148.666.666 0 0 0-.265-.059 1.2 1.2 0 0 0-.287.035 3.594 3.594 0 0 0-.426.131c-.342.125-.813.33-1.485.649a6.247 6.247 0 0 1-.83.306c-.303.093-.64.182-1.01.272-.76.184-1.642.369-2.568.576.029-2.028.591-3.708.613-4.832.023-1.21-.584-1.782-2.685-2.13a6.04 6.04 0 0 0-.95-.046z" style="opacity:.204082;fill:#8e44ad;fill-opacity:1;stroke-width:2.8148"/><path d="M22.594 13.84C16.69 13.652 9.88 17.206 6.77 21.242l-.402.62c.806.23 2.54.504 3.154.472.401-.02 1.079-.54 1.079-.54h2.203l.42.657.656.654v-1.31l.656-.656.654-.657h.657v-.654l.656-.656 1.31-.656.657-.657.843-.441.467.441 1.313-.654-.467-.742-.47.016-.186-.372-.358-.296 1.668-.004.467.742 1.969.656-.656-1.31v-1.313zm.369 25.746c.092-.464.09-.928.098-1.398l1.31-.655.656-.656.657-2.623.656-.656v-1.31l-.469-.743-1.5.086-1.31-.654h-.657l-.656-1.313-1.121-1.098-.846.442-1.31-1.31h-1.313l-1.967-.657-.656 1.313-1.12-.745-.847-.654v-.568l-.466-.444-.76-.379.572-1.146-.467-.742-1.502 1.398h-.654l-.428-.428v.004c-.07.382-.604.19-.64.575-.005.048.466.722.466.722s.846.301 1.256.438l1.313.656.656.656.654.655h1.313v1.312l-.656.654-.657 1.313v.656l.657.654.656.657.654 1.312.656.654 1.313.657v2.56c.55.105 1.126.206 1.752.3.063.008.112.02.176.03a80.59 80.59 0 0 0 3.785.414l.187.018c.182.016.375.028.559.043.032.003.016.001 0 0s-.033-.003 0 0zm9.135-21.512-.512.319-.469.693.469.742h1.11l-.048-.107-.084-.905zm-8.744 21.29a55.412 55.412 0 0 0 12.523-10.042l-1.188-.04-3.082.472-.49-.533-1.37-.715-.597-.897-.187-.568v-2.623l.654-1.313 1.313-1.31v-.656l1.31-.657.713-.236c.108.178.21.36.31.543.008.013.024.022.034.033l-.344-.576c.417-.215.847-.404 1.287-.566.212-.081.438-.149.658-.223.257-.087.507-.18.77-.26.198-.059.398-.109.598-.164.289-.08.577-.163.867-.236.2-.05.397-.092.597-.139.302-.072.6-.145.895-.21 1.852-.415 3.528-.738 4.408-1.155.164-.078.281-.129.422-.193.149-.376.296-.753.441-1.135.422-.163.69-.231.868-.229a.665.665 0 0 1 .265.059c.313.136.588.453.881 1.69.294 1.236.608 3.395.692 5.376a25.663 25.663 0 0 1-.112 3.682c-.016.15-.03.303-.049.44l-.011.083c-.032.22-.066.428-.102.606a4.827 4.827 0 0 1-.168.635 2.095 2.095 0 0 1-.162.35 1.175 1.175 0 0 1-.135.193.829.829 0 0 1-.14.117 1.054 1.054 0 0 1-.211.119c-.335.137-.732.158-1.414.012-.682-.147-1.647-.463-2.73-.588-.245-.028-.75-.055-.75-.055.123.415.259.803.405 1.172v.002c.147.368.305.715.471 1.049v.002c.334.667.706 1.277 1.104 1.88v.002c.795 1.207 1.696 2.384 2.613 3.924.038.1.073.196.101.291v.002c.231.766.148 1.432-.732 1.955-.22.131-.489.255-.816.368a7.904 7.904 0 0 1-.536.16 13.67 13.67 0 0 1-1.351.279 26.83 26.83 0 0 1-1.764.215c-4.066.372-11.331.282-17.15-.17z" style="opacity:.432653;fill:url(#e);fill-opacity:1"/><path fill="url(#f)" fill-rule="evenodd" d="m33.47 21.468-4.319 6.142 8.583 8.584c.768-1.693 2.88-5.88 2.883-7.74 0-1.624-6.523-5.392-7.112-6.907a13.828 13.828 0 0 0-.035-.08z" opacity=".2" style="fill:url(#f)"/><path fill="url(#g)" d="M21.363 12.765c-.974.216-1.917.435-2.756.656-.117.03-.234.066-.35.097-1.585.427-3.173.932-4.577 1.771-.331.198-.665.405-.999.62l-.001.001c-.657.424-1.298.871-1.922 1.341-1.264.958-2.437 2.017-3.352 3.138-.229.28-.44.565-.634.852.806.231 1.671.382 2.285.35.401-.02 1.078-.539 1.078-.539h2.623v.656l.656.656v-1.31l.656-.657.655-.656h.656v-.656l.656-.655 1.311-.656.656-.656 1.311-.656v.656l1.312-.656h-.656v-.655l-.656-.656h2.623l-.656.656 1.968.655-.656-1.31V13.84zm23.401 2.971c-.317-.005-.854.178-2.198.815-.88.417-2.556.74-4.408 1.154-.295.066-.593.138-.895.21-.2.047-.397.09-.598.14-.29.073-.577.156-.866.236-.2.055-.4.105-.598.164-.263.08-.513.172-.77.26-.22.073-.446.141-.658.222-.44.163-1.287.567-1.287.567l-.712.237-1.312.656v.656l-1.311 1.31-.656 1.312v2.623l.656 1.312 1.311.655.656.656 3.093-.515 3.66.11c.508-.028 1.012-.05 1.51-.064.42-.01.834-.014 1.236.003.255.011.506.027.75.055 1.084.125 2.048.44 2.73.587.682.146 1.08.125 1.415-.012.336-.136.607-.387.817-1.414.21-1.027.357-2.83.273-4.81-.084-1.982-.398-4.14-.692-5.378-.293-1.236-.567-1.552-.88-1.688a.666.666 0 0 0-.266-.059zM31.118 17.65v1.435h1.11l-.205-.423.074-.588Zm-18.319.043h.04l-.081.08zm-2.664 5.982-.656.656h-.655l-.427-.426v.003l-.175 1.316 1.257.418 1.312.656.656.656.655.656h1.312v1.311l-.656.656-.656 1.311v.656l.656.656.656.655.655 1.312.656.656 1.312.655v2.833l-.076.36a42.44 42.44 0 0 0 2.295.41c.063.008.112.02.176.03 1.191.17 2.554.31 3.972.432l.19-1.442v-.656l1.311-.655.656-.656.656-2.623.655-.656v-1.31l-1.311-.656h-.656l-1.311-.655h-.656l-.656-1.312-.655-.656h-1.312l-1.311-1.31h-1.312l-1.967-.657-.656 1.312-1.31-.656h-.657v-1.31l-.76-.381-.551-.276.656-1.312z" style="fill:url(#g)"/><path fill="url(#h)" d="m5.981 29.555 4.455 4.455 2.4-3.563-3.922-3.922-2.933 3.03z" opacity=".397" transform="translate(-.692 -.907)"/><circle cx="6.806" cy="27.185" r="2.112" fill="url(#i)" style="fill:#194d6f;stroke-width:.37955;image-rendering:optimizeSpeed;fill-opacity:1"/><ellipse cx="6.748" cy="27.212" fill="url(#j)" rx="1.982" ry="1.444" style="fill:#eff0f1;stroke-width:.37955;image-rendering:optimizeSpeed;fill-opacity:1"/><circle cx="6.272" cy="27.212" r=".743" fill="#232629" style="stroke-width:.37955;image-rendering:optimizeSpeed;fill:#000;fill-opacity:1"/><path d="M44.764 15.736c-.317-.005-.854.178-2.198.815-.11.052-.233.103-.367.152l-.011.004a8.557 8.557 0 0 1-.452.15c-.927.283-2.202.54-3.578.848-.295.066-.592.139-.894.211-.2.047-.399.089-.6.139-.29.073-.576.156-.865.236-.2.055-.4.105-.598.164-.263.08-.512.173-.77.26-.22.074-.446.142-.658.223-.44.162-1.287.566-1.287.566l-.713.238-1.31.654v.657l-1.313 1.31-.656 1.313v2.623l.656 1.31 1.313.657.654.656 3.094-.516 3.66.11a56.07 56.07 0 0 1 1.51-.063c.42-.01.834-.015 1.236.002.255.011.506.027.75.055.245.028.48.068.711.111l.027.006c.271.052.533.108.778.168.462.113.874.23 1.215.303.682.146 1.079.125 1.414-.012.21-.085.394-.216.554-.55v-.003c.097-.202.183-.476.262-.861.046-.226.089-.503.127-.797.02-.16.037-.342.055-.52a19.883 19.883 0 0 0 .1-1.625 26.696 26.696 0 0 0-.008-1.863v-.008a30.9 30.9 0 0 0-.102-1.5v-.002c-.046-.5-.103-.992-.166-1.462v-.002a31.93 31.93 0 0 0-.203-1.325v-.002a19.368 19.368 0 0 0-.22-1.082v-.002a7.8 7.8 0 0 0-.218-.763v-.002a2.896 2.896 0 0 0-.216-.49 1.161 1.161 0 0 0-.22-.284.81.81 0 0 0-.228-.148.664.664 0 0 0-.265-.059zm-13.48 1.987-.167.254v1.109h1.112l-.206-.424.075-.588-.815-.351zM19.206 28.158a43.622 43.622 0 0 1-6.857 3.635l.408.408.656.654.654 1.313.657.654 1.312.657v2.832l-.076.36c.703.146 1.456.284 2.295.41.063.008.112.018.176.028.277.04.59.073.884.11.367.045.718.091 1.106.133.009 0 .016.003.025.003.633.067 1.288.13 1.957.188l.19-1.441v-.657l1.31-.654.657-.656.656-2.623.654-.657v-1.31l-1.31-.656h-.657l-1.31-.655h-.657l-.656-1.312-.654-.656h-1.313l-.107-.108z" style="opacity:.39591837;fill:#f39c1f;fill-opacity:1;stroke-width:2.8148"/><path d="M45.121 15.855a55.412 55.412 0 0 1-8.424 12.625l1.174.036a56.07 56.07 0 0 1 1.51-.063c.42-.01.834-.015 1.236.002.255.011.506.027.75.055.245.028.48.068.711.111l.027.006c.271.052.533.108.778.168.462.113.874.23 1.215.303.682.146 1.079.125 1.414-.012.21-.085.394-.216.554-.55v-.003c.097-.202.183-.476.262-.861.046-.226.089-.503.127-.797.02-.16.037-.342.055-.52a19.898 19.898 0 0 0 .1-1.625 26.647 26.647 0 0 0-.008-1.863v-.008c-.021-.494-.056-1-.102-1.5v-.002a35.8 35.8 0 0 0-.166-1.462v-.002a31.97 31.97 0 0 0-.203-1.325v-.002a19.377 19.377 0 0 0-.22-1.082v-.002a7.8 7.8 0 0 0-.218-.763v-.002a2.896 2.896 0 0 0-.216-.49 1.161 1.161 0 0 0-.22-.284c-.043-.04-.09-.06-.136-.088z" style="opacity:.55918367;fill:#f39c1f;fill-opacity:1;stroke-width:2.13543"/><path d="M34.965 10.697c-2.777.067-8.784 1.002-13.602 2.069l-.054.011c-.904.2-1.805.415-2.702.645-.117.03-.232.065-.35.096a27.55 27.55 0 0 0-2.357.732 15.31 15.31 0 0 0-1.136.469c-.371.172-.733.36-1.084.568-.332.2-.666.408-1 .623-.65.418-1.296.868-1.922 1.342-.934.698-1.81 1.47-2.62 2.309a15.07 15.07 0 0 0-.72.816l-.012.012-.002.002c-.08.098-.153.197-.228.295-.141.184-.278.37-.405.556-.03.045-.066.088-.095.133-1.53 2.35-3.057 6.383-3.057 6.383s1.966-3.622 3.078-5.362c.03-.045.068-.088.098-.132.126-.187.262-.375.402-.559.075-.098.149-.197.229-.295l.002-.002.011-.01c.226-.277.467-.55.721-.818a21.67 21.67 0 0 1 2.62-2.307 31.006 31.006 0 0 1 1.921-1.341 39.64 39.64 0 0 1 1-.623c.351-.21.713-.399 1.084-.57a15.17 15.17 0 0 1 1.137-.468c.77-.285 1.565-.52 2.357-.734.117-.031.233-.064.35-.094.897-.23 1.797-.444 2.701-.644l.055-.014c4.818-1.067 10.824-2 13.601-2.066.476-.012.858.003 1.121.045 1.384.229 2.24.56 2.664 1.101.02-1.204-.589-1.776-2.685-2.123-.263-.042-.645-.057-1.121-.045zm9.799 5.04c-.317-.006-.854.177-2.198.814-.812.385-2.727.783-4.409 1.154 2.44.116 4.305-.272 6.628-.947.092 0 .183.02.268.056.312.137.586.456.879 1.692.289 1.217.595 3.326.685 5.281-.002-.306-.002-.608-.015-.926-.084-1.982-.398-4.139-.692-5.377-.293-1.236-.569-1.552-.88-1.69a.666.666 0 0 0-.266-.058z" style="fill:#fff;fill-opacity:.366973"/></svg>